<?xml version="1.0" encoding="UTF-8" standalone="no"?>
<!DOCTYPE svg PUBLIC "-//W3C//DTD SVG 1.1//EN" "http://www.w3.org/Graphics/SVG/1.1/DTD/svg11.dtd">
<svg width="100%" height="100%" viewBox="0 0 200 200" version="1.1" xmlns="http://www.w3.org/2000/svg" xmlns:xlink="http://www.w3.org/1999/xlink" xml:space="preserve" style="fill-rule:evenodd;clip-rule:evenodd;stroke-linejoin:round;stroke-miterlimit:1.41421;">
    <g transform="matrix(2.47124,-4.88769e-18,-4.89038e-18,2.48984,-649.647,-885.976)">
        <path d="M340.202,370.307C337.762,372.554 334.253,373.307 331.077,372.427C330.829,372.356 328.351,371.489 328.837,371.046C329.375,370.562 330.15,370.293 330.715,369.774C331.237,369.299 331.718,368.777 332.256,368.312C333.612,367.149 334.859,366.087 336.357,365.119C337.485,364.388 338.623,363.41 339.634,362.513C340.15,361.82 340.762,360.703 341.675,360.521C341.675,361.548 341.452,362.562 341.449,363.589C341.444,364.589 341.707,365.56 341.797,366.549C341.938,368.041 341.278,369.315 340.202,370.307M332.973,381.473C330.753,382.383 328.729,382.25 326.438,381.81C325.258,381.579 324.098,381.432 322.973,380.981C322.006,380.595 321.019,380.161 319.96,380.161C320.209,379.419 320.739,378.834 321.223,378.239C322.166,377.073 323.142,375.962 324.25,374.951C325.435,373.867 327.014,372.084 328.672,373.147C330.476,374.302 332.987,374.601 335.052,374.245C336.291,374.033 337.444,373.592 338.566,373.033C339.4,372.614 340.142,371.869 341.11,371.758C340.585,375.973 336.77,379.919 332.973,381.473M328.438,385.006C327.642,385.829 326.745,386.479 325.788,387.112C323.731,388.476 321.69,388.31 319.304,388.335C318.044,388.348 316.772,388.139 315.516,388.242C315.307,388.259 313.495,388.835 313.481,388.555C313.454,388.096 314.826,387.033 315.073,386.674C315.573,385.954 316.046,385.261 316.598,384.579C317.348,383.59 317.943,382.411 319.185,381.962C320.429,381.514 321.794,381.935 322.987,382.356C324.65,382.943 326.172,383.383 327.957,383.435C328.229,383.443 330.723,383.337 330.723,383.655C329.859,383.655 329,384.422 328.438,385.006M308.217,393.715C308.125,394.552 308.263,395.846 309.435,395.498C310.943,395.047 312.033,394.093 313.671,393.927C316.764,393.609 319.747,394.83 322.481,396.134C325.354,397.509 328.27,398.952 331.533,398.944C333.096,398.938 334.425,398.563 335.83,397.9C336.37,397.648 336.998,397.376 337.346,396.868C337.55,396.569 337.754,396.118 338.183,396.118C337.764,397.044 336.974,397.726 336.088,398.188C333.281,399.664 329.634,399.601 326.615,398.938C323.351,398.224 320.44,395.995 317.065,395.751C315.476,395.637 313.679,395.743 312.171,396.3C311.057,396.715 310.084,398.112 308.84,398.058C308.051,398.025 307.812,397.338 307.464,396.77C307.323,396.539 306.877,396.025 306.595,396.389C305.907,397.283 306.853,398.792 307.568,399.265C308.731,400.028 309.215,401.439 310.024,402.506C310.888,403.651 312.133,404.479 313.079,405.561C315.212,407.996 317.179,410.566 319.253,413.067C320.449,414.51 321.644,415.95 322.913,417.333C324.047,418.567 324.951,419.988 326.085,421.219C326.726,421.915 327.362,422.624 328.115,423.203C328.555,423.537 329.147,423.817 329.351,424.377C329.653,425.216 331.196,424.928 331.196,425.956C329.653,425.635 328.533,424.404 327.155,423.735C326.487,423.409 326.101,422.866 325.59,422.355C325.106,421.869 324.438,421.61 323.916,421.165C322.761,420.178 322.09,418.757 321.174,417.572C320.332,416.488 319.253,415.659 318.413,414.564C316.739,412.398 314.97,410.27 313.106,408.265C311.049,406.045 308.595,403.278 305.679,402.21C305.198,402.028 303.28,401.756 303.394,402.721C303.462,403.303 304.084,403.678 304.193,404.273C304.347,405.107 304.182,405.985 303.981,406.797C303.214,409.83 301.29,412.406 300.459,415.412C299.614,418.458 299.562,421.869 300.986,424.752C301.66,426.119 302.437,427.475 303.532,428.548C304.024,429.034 304.519,429.51 305.027,429.975C305.364,430.287 305.986,430.619 305.986,431.151C300.089,428.937 297.336,421.523 298.907,415.743C299.336,414.175 299.752,412.602 300.41,411.11C300.994,409.784 301.97,408.572 302.209,407.113C302.459,405.577 301.796,404.175 301.353,402.74C301.016,401.64 301.298,401.221 302.165,400.588C303.356,399.716 302.402,398.778 301.228,399.414C299.904,400.131 298.999,401.436 297.956,402.482C295.421,405.02 292.812,407.493 290.2,409.958C287.722,412.303 285.559,414.904 283.211,417.376C282.151,418.493 280.906,419.339 279.871,420.466C279.409,420.961 278.803,421.276 278.328,421.754C277.977,422.102 277.637,422.556 277.091,422.556C277.412,421.388 279.061,420.263 279.879,419.439C282.396,416.92 284.559,414.075 287.116,411.594C289.651,409.137 292.16,406.667 294.222,403.786C295.206,402.409 296.029,401.004 297.214,399.781C297.986,398.985 298.347,398.088 296.869,398.071C295.173,398.05 293.546,398.012 291.88,398.395C290.197,398.784 288.605,399.131 286.869,399.085C285.352,399.044 283.841,398.884 282.325,398.851C280.999,398.822 279.988,399.118 278.743,399.528C277.254,400.014 276.05,400.86 274.909,401.914C274.376,402.401 273.83,402.884 273.181,403.207C272.738,403.425 272.189,403.667 272.159,404.237C272.118,405.045 272.504,405.781 272.281,406.604C272.11,407.229 271.691,407.751 271.17,408.121C270.175,408.827 268.838,409.037 267.659,408.778C264.971,408.194 263.922,405.493 264.523,402.998C264.827,401.74 265.523,400.525 266.621,399.811C267.92,398.955 269.504,399.436 270.792,400.112C271.792,400.637 271.517,401.803 272.248,402.482C273.026,403.202 274.61,401.289 275.02,400.789C275.917,399.71 277.246,398.465 278.673,398.327C280.102,398.188 279.54,397.441 278.673,396.922C277.36,396.134 276.189,395.302 275.001,394.335C274.134,393.628 273.039,392.482 271.876,392.357C271.064,392.27 270.803,392.933 270.267,393.378C269.784,393.772 269.17,393.998 268.558,394.107C267.653,394.267 266.686,394.18 265.911,393.658C264.642,392.805 264.267,391.137 264.343,389.696C264.528,386.259 267.352,383.294 270.713,385.536C271.727,386.212 272.895,387.568 272.773,388.87C272.662,390.055 272.08,391.183 273.471,391.781C274.952,392.422 275.936,393.615 277.254,394.512C278.526,395.381 279.928,396.039 281.401,396.479C284.515,397.408 287.983,397.52 291.005,396.221C292.575,395.544 294.2,394.656 295.972,394.998C296.456,395.09 298.478,396.721 298.532,395.631C298.581,394.588 297.847,393.661 297.086,393.052C295.809,392.036 294.733,391.033 293.7,389.759C292.651,388.465 291.602,387.057 290.456,385.854C289.336,384.682 287.863,383.723 286.657,382.617C285.301,381.373 283.893,380.174 282.436,379.052C281.167,378.074 279.8,377.196 278.741,375.978C277.558,374.62 276.442,373.122 275.366,371.679C274.534,370.565 273.607,369.606 273.099,368.282C274.944,369.369 275.762,371.63 277.319,373.019C278.276,373.875 279.05,374.902 280.026,375.747C280.928,376.525 281.887,377.231 282.836,377.946C284.961,379.549 287.361,381.03 289.233,382.924C290.969,384.68 292.793,386.503 294.817,387.93C296.513,389.126 299.524,389.731 300.277,391.903C300.997,393.979 301.79,390.903 301.894,390.226C302.201,388.191 301.171,386.449 300.904,384.476C300.554,381.913 301.07,379.647 301.69,377.188C302.524,373.856 301.733,370.869 299.663,368.163C298.847,367.098 297.695,365.801 296.225,366.369C294.907,366.877 293.98,367.277 292.575,366.684C291.078,366.049 290.749,364.334 290.676,362.864C290.594,361.337 290.904,360.231 292.16,359.285C294.138,357.793 296.975,357.26 299.252,358.429C300.809,359.228 301.005,360.309 301.326,361.891C301.592,363.206 300.551,364.35 300.076,365.494C299.41,367.095 300.586,368.095 301.587,369.193C302.046,369.695 302.467,370.239 302.728,370.875C302.964,371.448 302.902,372.155 303.236,372.687C304.103,374.073 305.28,370.644 305.617,370.109C306.337,368.956 307.456,368.377 308.285,367.369C309.225,366.236 307.524,364.562 307.16,363.443C306.761,362.217 306.704,360.385 307.625,359.364C309.38,357.671 311.571,356.918 313.965,357.866C316.505,358.875 317.462,362.38 316.228,364.712C315.582,365.932 313.87,367.005 312.462,366.655C311.774,366.486 311.359,365.994 310.649,366.413C310.057,366.763 309.573,367.271 309.141,367.799C307.108,370.277 305.255,373.101 304.184,376.133C303.04,379.372 302.731,382.883 304.111,386.087C304.769,387.623 305.777,389.169 304.739,390.761C304.399,391.281 302.956,393.21 304.364,393.253C305.674,393.289 305.771,391.718 306.494,390.949C306.916,390.501 307.486,390.234 307.951,389.835C308.524,389.343 309.038,388.789 309.628,388.31C310.937,387.245 312.19,386.259 313.206,384.9C314.117,383.685 314.875,382.364 315.717,381.101C316.701,379.631 317.894,378.326 318.954,376.911C319.919,375.625 320.894,374.516 322.12,373.465C323.536,372.253 325.017,371.158 326.609,370.182C327.242,369.793 327.919,369.502 328.56,369.138C329.158,368.801 329.707,368.168 330.441,368.168C330.441,368.984 328.908,369.522 328.335,369.848C327.696,370.212 327.185,370.725 326.596,371.16C325.954,371.633 325.242,371.992 324.631,372.514C323.465,373.505 322.536,374.747 321.44,375.815C320.291,376.94 319.188,378.098 318.359,379.489C317.549,380.856 316.859,382.272 315.872,383.525C314.826,384.854 313.693,386.125 312.527,387.354C310.788,389.183 308.524,391.036 308.217,393.715M326.761,394.18C327.345,393.476 328.416,392.963 329.177,392.479C330.087,391.906 331.318,390.924 332.422,390.924C331.949,392.351 331.359,393.743 331.014,395.21C330.775,396.221 330.949,397.542 329.661,397.387C328.655,397.264 327.362,397.061 326.479,396.512C325.348,395.808 326.163,394.903 326.761,394.18M334.718,390.408C336.215,389.03 338.455,388.669 339.767,387.006C340.224,386.427 340.286,384.598 341.205,384.598C341.202,387.666 340.425,390.805 338.702,393.368C337.221,395.571 334.691,397.533 331.952,397.533C332.022,395.014 332.802,392.172 334.718,390.408M342.055,389.226C342.664,390.03 341.936,391.327 341.816,392.194C341.656,393.368 341.759,394.574 341.487,395.743C341.047,395.838 340.031,396.332 339.87,395.596C339.732,394.971 340.202,394.281 340.438,393.732C340.781,392.944 341.028,392.003 341.294,391.174C341.509,390.495 341.419,389.699 342.055,389.226M341.895,399.827C341.27,403.265 335.764,402.284 333.933,400.463C334.539,399.784 335.851,399.724 336.607,399.221C337.262,398.784 337.667,398.055 338.278,397.569C338.756,397.191 339.487,397.061 340.074,397.025C341.792,396.917 342.156,398.384 341.895,399.827M334.403,406.564C332.824,406.458 331.563,405.952 330.18,405.194C328.824,404.447 327.356,403.906 326.155,402.887C325.672,402.477 323.612,399.433 325.348,399.599C327.115,399.77 328.544,400.775 330.403,400.572C331.514,400.449 332.098,400.914 332.927,401.569C333.607,402.104 334.446,402.485 335.232,402.841C336.993,403.631 338.802,403.368 340.639,403.012C340.639,406.001 336.626,406.716 334.403,406.564M322.313,406.333C323.601,407.281 324.875,408.278 326.329,408.966C326.981,409.27 328.362,409.648 328.362,410.566C326.585,410.566 324.794,410.607 323.041,410.936C321.682,411.194 319.976,411.537 318.777,410.594C318.28,410.202 318.03,409.58 317.679,409.066C317.245,408.439 316.723,407.874 316.291,407.24C315.875,406.626 315.486,406.009 314.88,405.558C314.541,405.303 314.106,405.004 314.106,404.523C316.94,403.71 319.992,404.621 322.313,406.333M336.104,414.096C337.444,414.966 338.313,416.211 339.221,417.491C340.033,418.635 340.813,419.814 341.017,421.235C340.248,421.138 339.612,420.681 338.952,420.314C338.262,419.926 337.506,419.708 336.737,419.521C335.253,419.162 333.786,418.871 332.253,418.819C330.976,418.781 329.761,418.923 328.5,419.08C327.734,419.175 326.435,419.409 325.818,418.787C324.579,417.55 323.318,416.197 322.296,414.773C321.593,413.789 321.201,412.909 322.59,412.425C324.109,411.898 325.748,411.876 327.337,411.99C330.302,412.194 333.541,412.442 336.104,414.096M341.569,425.499C341.574,426.923 341.33,428.325 341.286,429.738C341.246,431.073 341.65,432.372 341.675,433.698C340.46,433.426 339.922,431.687 339.297,430.776C338.398,429.467 336.881,428.518 335.677,427.518C335.047,426.996 334.259,426.725 333.59,426.26C332.797,425.708 332.142,424.956 331.435,424.306C330.878,423.798 330.079,423.578 329.672,422.904C329.283,422.263 328.653,421.591 327.892,421.423C327.639,420.407 330.666,420.415 331.223,420.393C333.715,420.287 335.911,420.477 338.139,421.624C339.764,422.464 341.555,423.42 341.569,425.499M333.615,434.355C331.954,434.325 330.362,433.38 329.185,432.268C326.653,429.88 325.076,426.649 324.587,423.216C326.063,423.629 326.856,425.13 328.229,425.73C329.085,426.102 329.919,426.524 330.68,427.067C331.313,427.515 331.925,428.034 332.674,428.271C333.386,428.496 333.851,429.138 334.52,429.445C335.267,429.793 335.81,430.442 336.479,430.899C337.264,431.431 337.995,432.048 338.735,432.641C339.153,432.978 339.789,433.369 339.789,433.98C337.724,433.98 335.683,434.396 333.615,434.355M325.017,432.698C323.699,432.054 322.267,430.98 321.31,429.877C320.65,429.111 319.818,428.496 319.226,427.678C318.462,426.621 317.894,425.548 317.449,424.328C316.813,422.594 316.56,420.882 316.601,419.034C316.62,418.224 316.777,415.197 318.147,416.425C318.788,417.001 319.294,417.757 319.848,418.415C320.411,419.075 321.071,419.583 321.65,420.211C322.848,421.518 323.033,423.738 323.481,425.374C323.995,427.265 324.886,428.994 326.074,430.548C326.596,431.233 327.093,431.953 327.74,432.529C328.174,432.91 328.696,433.293 328.835,433.888C327.465,434.056 326.196,433.274 325.017,432.698M311.223,419.045C309.723,415.564 310.155,411.99 310.989,408.395C312.427,408.496 313.141,410.156 313.924,411.137C314.788,412.224 315.886,413.2 315.891,414.697C315.894,415.7 315.568,416.667 315.443,417.656C315.312,418.7 315.25,419.752 315.272,420.801C315.31,422.42 316.277,423.858 316.277,425.486C313.503,424.548 312.28,421.513 311.223,419.045M304.568,419.828C305.592,420.45 306.375,421.273 307.13,422.197C307.899,423.129 309.244,424.284 309.288,425.578C307.829,425.39 306.619,424.6 305.106,424.611C304.543,424.613 303.761,424.586 303.277,424.928C303.059,425.083 302.809,425.102 302.587,424.953C301.432,424.181 301.157,421.722 301.032,420.466C300.801,418.091 303.41,419.132 304.568,419.828M310.617,428.274C311.182,429.247 311.693,430.521 312.514,431.298C313.022,431.782 314.201,432.198 314.201,433.037C311.807,432.88 309.617,431.782 307.581,430.592C306.617,430.024 306,429.064 305.212,428.301C304.581,427.692 303.72,427.124 303.72,426.146C305.111,425.945 306.486,426.282 307.842,426.559C309.195,426.833 309.913,427.064 310.617,428.274M310.272,434.66C309.28,434.736 308.28,434.66 307.291,434.573C305.394,434.396 303.385,434.366 301.516,434.002C300.157,433.736 299.491,432.472 299.41,431.173C299.385,430.785 299.26,428.632 299.836,428.573C300.421,428.513 301.165,429.13 301.576,429.477C302.255,430.054 302.899,430.6 303.655,431.07C304.394,431.529 305.122,432.037 305.886,432.456C306.731,432.91 307.717,433.051 308.63,433.315C309.565,433.584 310.568,433.527 311.497,433.828C312.533,434.16 310.538,434.641 310.272,434.66M292.483,421.803C292.573,420.124 293.603,418.57 293.809,416.871C294.04,414.953 293.988,413.004 294.094,411.077C294.173,409.659 294.613,407.77 295.728,406.767C296.285,406.262 297.771,405.92 297.771,404.996C298.451,404.77 299.622,403.748 300.274,404.566C300.671,405.066 300.475,405.887 300.301,406.431C299.608,408.632 298.535,410.689 297.972,412.944C297.524,414.738 297.44,416.844 296.021,418.208C295.276,418.925 294.415,419.328 293.961,420.314C293.698,420.882 293.217,421.803 292.483,421.803M298.94,427.88C298.461,429.151 298.018,430.344 298.279,431.708C298.429,432.488 298.592,433.527 297.445,433.32C291.727,432.271 291.66,422.893 296.26,420.48C297.26,420.222 297.198,421.072 297.377,421.874C297.54,422.594 297.594,423.273 297.912,423.947C298.524,425.23 299.505,426.396 298.94,427.88M291.26,419.727C290.741,421.176 290.054,422.722 289.379,424.105C289.051,424.771 288.564,425.347 288.298,426.043C288.173,426.369 288.037,427.089 287.572,427.089C287.589,425.573 288.241,424.219 288.121,422.673C288.002,421.029 287.795,419.39 287.613,417.754C287.447,416.295 287.548,415.48 288.447,414.311C289.236,413.3 289.76,412.067 290.744,411.216C291.211,410.768 291.559,409.906 292.293,409.906C292.293,413.189 292.388,416.591 291.26,419.727M286.782,422.898C286.793,425.023 286.393,427.154 285.553,429.111C284.714,431.056 283.431,432.388 281.583,433.388C279.787,434.366 277.904,434.347 275.906,434.119C275.401,434.065 274.58,434.046 274.181,433.684C273.863,433.388 274.789,432.627 274.969,432.45C275.602,431.828 276.406,431.263 276.822,430.461C277.289,429.556 277.73,428.643 278.202,427.738C279.04,426.146 278.743,424.135 279.738,422.632C280.338,421.722 281.412,421.167 282.176,420.407C282.594,419.988 282.988,419.589 283.428,419.192C284.301,418.322 285.051,417.33 286.062,416.607C286.983,418.523 286.776,420.841 286.782,422.898M270.716,433.339C270.069,433.285 269.433,433.111 268.787,433.184C268.479,433.219 266.311,433.603 266.3,433.086C266.276,431.931 268.219,430.622 269.007,430.026C270.474,428.92 271.743,427.763 273.384,426.901C274.719,426.203 276.01,425.2 277.186,424.254C278.143,424.254 276.3,428.344 276.08,428.817C275.42,430.222 274.537,431.545 273.273,432.486C272.501,433.056 271.691,433.418 270.716,433.339M276.431,423.124C276.33,423.502 275.781,424.26 275.107,424.254C275.107,423.923 275.806,423.173 276.431,423.124M265.289,431.999C264.553,431.252 265.199,429.85 265.042,428.923C264.822,427.613 264.324,426.415 264.332,425.07C264.352,422.455 265.982,420.762 268.439,420.026C270.672,419.36 273.197,419.499 275.436,420.059C276.17,420.243 276.947,420.692 276.034,421.336C275.463,421.741 275.001,422.263 274.48,422.722C273.928,423.317 273.221,423.782 272.583,424.276C271.702,424.966 271.026,425.841 270.224,426.613C268.452,428.317 266.928,430.173 265.289,431.999M268.574,416.29C269.786,415.086 271.316,414.159 272.727,413.181C273.504,412.621 274.208,411.985 275.151,411.702C276.58,411.278 278.094,411.374 279.548,411.607C280.656,411.789 281.768,412.05 282.779,412.547C284.178,413.235 282.733,413.958 282.178,414.776C281.287,416.091 279.917,417.023 278.966,418.279C278.591,418.771 278.192,419.417 277.482,419.243C276.762,419.064 276.105,418.673 275.376,418.496C273.607,418.059 271.656,417.955 269.857,418.268C268.17,418.564 266.849,419.733 265.194,420.102C265.294,418.26 267.433,417.423 268.574,416.29M277.281,407.64C277.925,407.46 278.578,406.895 279.159,406.569C280.056,406.066 281.118,405.778 282.118,405.566C283.496,405.276 284.869,405.398 286.26,405.487C287.559,405.577 288.795,405.577 290.026,406.034C289.358,407.395 287.926,408.384 287.037,409.599C286.273,410.64 285.668,411.583 284.225,411.409C282.814,411.24 281.597,410.371 280.178,410.227C278.466,410.05 276.738,409.988 275.015,410.096C275.24,408.963 276.311,408.161 277.281,407.64M288.638,390.09C287.613,390.147 286.594,390.316 285.564,390.34C283.624,390.389 281.162,389.343 279.591,388.226C278.374,387.359 277.406,386.354 276.526,385.166C277.203,384.919 277.915,385.212 278.597,385.253C279.363,385.302 280.154,385.052 280.898,384.908C282.469,384.601 284.132,384.337 285.73,384.56C287.143,384.756 288.159,385.802 289.149,386.734C290.244,387.769 291.388,388.77 292.293,389.979C291.141,390.397 289.833,390.02 288.638,390.09M271.95,380.799C270.7,379.652 269.118,378.747 267.969,377.503C267.401,376.886 266.868,376.234 266.335,375.59C265.528,374.617 265.362,373.85 265.362,372.601C265.911,372.601 266.463,373.44 266.765,373.815C267.278,374.446 267.824,374.989 268.591,375.307C270.607,376.144 272.743,376.856 274.944,376.943C275.936,376.981 276.963,376.927 277.893,377.337C278.795,377.734 279.423,378.511 280.211,379.073C281.007,379.639 281.605,380.275 282.306,380.949C282.866,381.489 283.613,381.813 284.148,382.381C285.013,383.294 282.896,383.405 282.417,383.435C280.83,383.541 279.26,383.835 277.664,383.685C275.319,383.473 273.637,382.345 271.95,380.799M265.102,358.633C266.784,358.633 267.778,361.377 268.43,362.578C269.189,363.983 270.042,365.339 270.857,366.712C272.257,369.079 273.751,371.399 275.341,373.647C275.667,374.103 276.107,374.514 276.406,374.978C276.98,375.872 274.197,375.421 273.838,375.375C270.996,375.005 268.477,374.141 266.604,371.918C265.882,371.057 265.134,370.723 265.104,369.481C265.082,368.543 265.33,367.622 265.536,366.717C266.159,364.005 265.4,361.331 265.102,358.633M272.795,358.021C274.493,358.325 276.067,359.404 277.088,360.777C277.577,361.434 277.61,362.266 277.716,363.046C277.849,364.027 278.075,364.994 278.173,365.981C278.355,367.831 278.222,369.668 278.243,371.519C278.271,373.489 276.325,370.359 275.996,369.894C274.947,368.413 273.67,367.176 272.509,365.796C271.392,364.47 270.498,362.951 269.46,361.57C268.996,360.956 268.634,360.252 267.993,359.796C267.596,359.513 266.987,359.2 266.987,358.633C268.92,358.442 270.833,357.673 272.795,358.021M276.499,358.179C277.917,358.133 279.328,358.241 280.569,358.97C281.673,359.616 282.719,360.38 283.643,361.271C285.475,363.024 287.078,365.619 287.831,368.043C288.529,370.302 287.874,372.353 287.461,374.576C287.374,375.041 287.029,379.008 286.268,378.726C285.167,378.321 284.347,377.169 283.363,376.535C282.51,375.987 281.635,375.438 280.92,374.712C279.029,372.777 279.779,370.141 279.749,367.706C279.73,366.228 279.483,364.763 279.17,363.32C278.95,362.288 278.792,361.195 278.314,360.244C277.947,359.861 277.624,359.529 277.183,359.236C276.996,359.111 275.648,358.206 276.499,358.179M288.608,376.098C289.157,373.932 289.366,371.723 289.366,369.492C290.341,369.492 290.692,370.916 291.127,371.565C291.736,372.478 292.336,373.272 292.765,374.291C293.236,375.416 293.896,376.47 294.173,377.669C294.456,378.872 294.507,380.109 294.537,381.34C294.562,382.498 294.719,383.707 294.646,384.862C294.575,385.919 293.918,385.522 293.38,385.033C292.684,384.4 291.912,383.862 291.228,383.215C290.491,382.519 289.399,381.892 288.825,381.065C287.765,379.538 288.189,377.756 288.608,376.098M310.66,380.25C310.875,378.995 310.918,377.712 311.149,376.459C311.424,374.989 312.285,374.163 313.06,372.957C313.766,371.861 315.095,370.304 316.465,370.152C316.359,371.693 315.813,373.179 315.818,374.731C315.823,376.122 316.095,377.489 315.62,378.845C315.114,380.286 313.943,381.544 313.003,382.72C312.437,383.432 311.954,384.218 311.372,384.913C310.587,385.865 310.405,384.794 310.334,383.995C310.228,382.742 310.451,381.479 310.66,380.25M317.921,370.405C319.283,366.56 322.296,363.766 324.9,360.782C325.824,359.725 327.895,358.288 329.308,358.82C327.919,360.388 326.745,362.179 325.731,364.011C325.231,364.913 324.802,365.886 324.663,366.916C324.538,367.818 324.511,368.671 324.093,369.5C323.316,371.041 321.81,371.959 320.652,373.174C320.044,373.812 319.525,374.524 318.957,375.198C318.652,375.56 318.095,376.424 317.565,376.47C316.329,376.582 317.818,370.698 317.921,370.405M331.702,358.961C333.118,358.184 334.454,358.203 335.993,358.54C337.737,358.923 339.362,358.442 341.11,358.442C340.96,359.758 339.006,360.994 338.101,361.804C336.816,362.956 335.161,363.954 333.59,364.668C332.713,365.068 331.897,365.706 331.09,366.231C330.153,366.837 329.087,367.182 328.163,367.777C327.742,368.043 326.348,369.282 325.878,368.598C325.261,367.695 326.076,365.964 326.479,365.138C327.615,362.796 329.384,360.236 331.702,358.961M343.419,358.595C343.509,358 343.748,357.437 343.808,356.839C343.933,355.546 342.207,356.334 341.55,356.518C340.55,356.798 339.436,356.932 338.4,356.964C336.925,357.01 335.539,356.467 334.082,356.32C332.582,356.173 331.052,356.263 329.579,356.586C326.408,357.29 323.935,359.271 321.84,361.674C320.764,362.91 319.715,364.214 318.769,365.557C317.938,366.733 316.81,367.53 315.617,368.323C314.277,369.22 313.09,370.253 311.975,371.416C310.878,372.552 310.473,373.848 309.905,375.283C309.19,377.095 308.994,378.864 308.932,380.802C308.877,382.386 309.103,384.041 308.886,385.612C308.793,386.299 307.538,389.017 306.481,387.873C305.598,386.916 305.22,385.014 304.943,383.786C304.239,380.704 305.016,377.237 306.375,374.432C306.848,373.465 307.66,371.532 308.614,370.937C309.617,370.312 309.992,368.984 311.081,368.464C312.348,367.864 313.815,368.513 315.141,367.831C316.405,367.185 317.378,365.875 318.008,364.633C319.027,362.63 318.845,359.361 317.307,357.638C315.31,355.402 310.994,355.467 308.503,356.646C305.964,357.85 304.407,360.755 305.138,363.532C305.451,364.731 307.016,366.005 306.084,367.271C305.429,368.155 304.144,368.937 304.144,370.16C303.633,370.022 303.443,369.293 303.271,368.869C303.049,368.323 302.687,367.869 302.296,367.437C301.366,366.418 302.04,365.636 302.655,364.63C303.774,362.793 303.244,359.673 302.038,358.04C299.845,355.075 294.225,355.499 291.535,357.44C289.689,358.768 288.54,360.614 288.774,362.94C288.991,365.07 290.026,367.258 292.097,368.152C293.573,368.791 295.097,368.481 296.643,368.619C298.046,368.747 299.076,369.658 299.671,370.899C300.894,373.446 300.038,376.386 299.6,379.006C299.296,380.826 299.184,382.691 299.453,384.519C299.581,385.364 299.788,386.199 300.084,387C300.244,387.438 300.576,387.968 300.519,388.457C300.41,389.386 298.059,387.721 297.649,387.481C296.312,386.71 296.277,385.066 296.228,383.68C296.105,380.171 296.097,376.799 294.304,373.669C292.63,370.739 290.263,368.269 288.477,365.407C286.725,362.606 285.252,359.252 282.203,357.641C279.406,356.165 275.412,356.114 272.344,356.369C270.634,356.51 268.955,357.149 267.254,357.19C266.542,357.209 265.952,357.168 265.319,356.828C264.93,356.622 264.275,356.171 263.797,356.279C262.99,356.467 263.778,359.347 263.884,359.807C264.265,361.434 264.493,363.038 264.297,364.709C263.9,368.03 263.112,371.291 264.327,374.557C264.933,376.19 266.05,377.416 267.232,378.652C268.311,379.783 269.278,381.025 270.482,382.03C272.129,383.416 274.238,384.525 275.412,386.373C275.819,387.014 276.472,387.348 277.004,387.862C277.523,388.365 277.917,388.981 278.482,389.444C279.548,390.31 281.154,390.944 282.442,391.381C283.923,391.881 285.45,392.055 286.999,391.892C288.322,391.748 289.651,391.471 290.986,391.566C291.423,391.596 294.698,392.571 293.619,393.275C292.456,394.031 290.983,394.645 289.659,395.033C286.415,395.984 282.545,395.468 279.569,393.881C278.787,393.465 278.048,392.976 277.279,392.536C276.784,392.253 276.466,391.77 275.936,391.517C274.819,390.981 274.327,390.433 274.428,389.188C274.637,386.65 272.553,384.229 270.303,383.302C267.403,382.109 264.786,383.446 263.536,386.239C262.62,388.291 262.686,391.484 263.623,393.528C264.876,396.264 268.887,396.724 271.178,395.033C271.77,394.593 272.213,394.275 272.925,394.685C273.49,395.012 274.02,395.455 274.545,395.846C275.654,396.672 276.428,397.735 275.17,398.827C273.667,400.134 272.602,399.191 271.192,398.327C269.971,397.577 268.656,397.495 267.262,397.686C264.278,398.093 262.911,401.688 262.976,404.341C263.042,407.17 264.332,409.8 267.229,410.607C269.939,411.363 273.338,409.835 273.849,406.92C274.148,405.216 274.64,404.042 275.999,402.903C277.075,401.998 278.363,401.37 279.714,401.001C281.322,400.561 282.928,400.544 284.578,400.71C285.45,400.803 286.333,400.884 287.206,400.762C287.964,400.653 288.643,400.379 289.42,400.338C290.399,400.292 291.35,400.205 292.314,400.058C292.719,399.998 293.915,399.773 294.173,400.237C294.491,400.803 293.401,401.895 293.086,402.259C292.41,403.047 291.665,403.841 290.611,404.072C289.197,404.382 287.504,403.958 286.094,403.773C283.926,403.485 281.64,403.767 279.635,404.68C277.969,405.447 276.572,406.24 275.186,407.452C274.058,408.439 273.466,409.675 272.496,410.781C271.452,411.977 269.876,413.151 268.528,413.972C267.496,414.605 266.178,415.613 265.46,416.583C263.351,419.434 262.707,422.964 263.131,426.464C263.338,428.187 263.928,430.002 263.751,431.747C263.629,432.953 263.004,434.171 263.18,435.402C263.289,436.171 264.873,435.418 265.324,435.268C266.496,434.88 267.71,434.706 268.947,434.779C270.841,434.891 272.618,435.597 274.485,435.839C276.01,436.035 277.558,435.842 279.08,435.739C280.665,435.63 282.167,435.309 283.537,434.469C284.942,433.608 285.841,432.44 286.934,431.244C288.051,430.021 289.089,428.719 289.809,427.219C290.157,426.496 290.526,425.782 290.801,425.023C290.999,424.472 291.632,424.135 291.632,423.502C291.736,424.695 291.228,426.07 291.059,427.255C290.575,430.657 293.828,433.127 296.393,434.684C297.915,435.611 299.714,435.426 301.415,435.456C303.133,435.483 304.834,435.76 306.538,435.934C308.418,436.124 310.253,436.111 312.098,435.684C313.677,435.32 315.486,434.736 317.122,434.98C317.834,435.089 318.315,435.834 319.006,435.864C319.47,435.883 319.519,435.412 319.356,435.1C318.927,434.277 317.987,433.654 317.247,433.133C316.212,432.396 314.956,432.029 314.114,431.046C313.076,429.825 312.285,428.466 311.679,426.991C310.513,424.165 309.326,421.306 306.943,419.265C305.872,418.352 304.415,417.319 302.994,417.132C301.28,416.898 302.304,415.067 302.63,414.05C303.179,412.327 303.877,410.528 304.856,409.001C305.834,407.485 305.812,405.971 305.986,404.237C307.318,404.591 308.926,405.781 309.136,407.208C309.388,408.928 308.725,410.901 308.538,412.613C308.32,414.575 308.399,416.545 309.024,418.431C309.565,420.059 310.5,421.646 311.334,423.146C313.179,426.472 316.614,427.945 319.462,430.228C320.818,431.312 321.753,432.853 323.269,433.73C324.587,434.494 325.992,435.331 327.487,435.66C330.884,436.415 334.778,436.179 338.218,435.869C339.455,435.758 340.658,435.934 341.892,435.934C342.947,435.937 343.148,435.76 343.129,434.706C343.112,433.624 342.993,432.537 342.884,431.461C342.729,429.926 343.02,428.366 343.112,426.833C343.308,423.58 342.686,419.991 341.148,417.099C339.686,414.344 337.311,412.376 334.503,411.083C331.563,409.727 328.601,408.727 325.979,406.781C323.375,404.854 320.31,402.648 316.935,402.564C315.568,402.528 313.989,403.115 312.685,402.487C311.845,402.083 310.345,400.762 310.524,399.694C310.685,398.732 312.12,398.177 312.908,397.895C314.277,397.4 315.772,397.539 317.182,397.743C318.593,397.952 320.068,398.134 321.367,398.754C322.658,399.368 323.125,400.604 323.669,401.846C324.889,404.629 327.78,406.199 330.501,407.303C333.229,408.414 336.669,409.126 339.362,407.561C341.995,406.026 343.202,403.072 343.36,400.145C343.452,398.4 343.286,396.656 343.235,394.914C343.186,393.237 343.316,391.56 343.289,389.881C343.256,387.998 342.941,386.161 342.765,384.288C342.691,383.479 342.626,382.636 342.789,381.832C342.939,381.087 343.216,380.364 343.265,379.603C343.371,377.919 342.555,378.506 342.053,379.506C341.341,380.922 340.447,382.223 339.767,383.655C338.311,386.729 335.552,387.938 332.509,389.022C330.954,389.579 329.411,390.155 328.022,391.068C326.827,391.854 326.093,392.922 325.085,393.889C323.957,394.971 322.669,394.425 321.394,393.946C319.946,393.4 318.489,392.848 316.97,392.52C315.516,392.204 313.85,392.047 312.421,392.577C311.81,392.805 311.114,393.161 310.451,393.15C309.614,393.142 311.965,391.229 312.185,391.068C313.405,390.175 314.894,389.963 316.37,390.009C317.987,390.066 319.593,390.226 321.212,390.256C322.946,390.291 324.449,389.612 326.009,388.9C327.579,388.183 328.827,387.039 330.196,386.019C331.506,385.041 332.944,384.245 334.229,383.231C335.539,382.199 336.993,381.321 338.175,380.139C339.275,379.044 340.235,377.758 341.142,376.5C343.237,373.595 343.403,370.196 343.248,366.733C343.161,364.847 343.115,363.002 343.259,361.114C343.324,360.285 343.297,359.418 343.419,358.595" style="fill:white;"/>
    </g>
</svg>
